<svg version="1" xmlns="http://www.w3.org/2000/svg" width="346.667" height="346.667" viewBox="0 0 260.000000 260.000000"><path d="M36.9 79.2c4.1 10.4 31.5 74.5 32.2 75.3 1 1 17.3 1.5 18.9.5.5-.3-1.6-6.5-5-14.5-3.3-7.7-10.6-25-16.3-38.5L56.3 77.5l-10.1-.3-10.2-.3.9 2.3zM122.6 81.7c-1.1 2.7-2.7 6.6-3.7 8.8-1 2.2-3 6.9-4.4 10.5-1.5 3.6-3.3 7.8-4 9.5-3.5 8-17.5 42.2-17.7 43.4-.2 1.2 1.3 1.5 8.2 1.6h8.6L120 131c10.2-24 10.4-24.7 10.4-32.5.1-4.4-.3-9.9-.7-12.1-.7-3.7-.6-4.2 1.2-4.7 2.2-.5.8-3.5 21.5 46.3l11.4 27.4 12.6.1c7 .1 13-.2 13.5-.5.4-.3 2.6-4.8 4.9-10 8.9-20.7 28.2-66.8 28.2-67.4 0-.3-3.9-.6-8.7-.6h-8.8l-9.7 23.3c-5.3 12.7-10 24.3-10.4 25.7-1.2 4.1-1.1 13.1.2 19.2 1.1 5.7 1.1 5.8-1.1 5.8-2 0-4.1-3.4-6.9-11-.3-.8-6.3-15.2-13.4-32l-12.9-30.5-13.4-.3-13.4-.2-1.9 4.7zM69 176.2v6.8h60.4c47.4 0 60.5-.3 60.8-1.3.3-.6.4-3.7.3-6.7l-.1-5.5-60.7-.1H69v6.8z"/></svg>