<svg xmlns="http://www.w3.org/2000/svg" xmlns:xlink="http://www.w3.org/1999/xlink">

  <symbol viewBox="0 0 64 24" id="logo-part-pr">
    <path filter="url(#logo-innershadow)" fill-rule="evenodd" clip-rule="evenodd" d="M0 5.36442e-07C4.36649 5.36442e-07 12.4404 5.36442e-07 16.4773 5.36442e-07C24.4688 5.36442e-07 28.5058 3.03437 28.5058 7.21688C28.5058 12.6295 23.9745 14.3517 15.5711 14.3517C12.5228 14.3517 8.15628 14.3517 5.5199 14.3517V23.2908H0V5.36442e-07ZM5.5199 10.3333V4.01849C9.06253 4.01849 13.841 4.01849 16.3949 4.01849C20.5967 4.01849 22.7387 5.24864 22.7387 7.29889C22.7387 9.34914 20.8438 10.2512 16.7245 10.2512C14.4177 10.3333 10.1336 10.3333 5.5199 10.3333Z" />
    <path filter="url(#logo-innershadow)" fill-rule="evenodd" clip-rule="evenodd" d="M48.7722 0H32.2949V23.2908H37.8148V14.3517H45.9141L56.6817 23.2088H63.4374L52.2251 14.1525C57.8253 13.5657 60.8007 11.6029 60.8007 7.21688C60.8007 3.03437 56.7637 0 48.7722 0ZM37.8972 4.01849V10.3333C42.4284 10.3333 46.7126 10.3333 49.1018 10.2512C53.2211 10.2512 55.116 9.34913 55.116 7.29889C55.116 5.24864 52.9739 4.01849 48.7722 4.01849H37.8972Z" />
  </symbol>

  <symbol viewBox="0 0 57 32" id="logo-part-crown">
    <path filter="url(#logo-innershadow)" d="M46.3385 27.637H10.5003V31.6554H46.3385V27.637Z"/>
    <path filter="url(#logo-innershadow)" d="M50.8697 0.327637L45.5146 12.9572C44.3612 15.6635 44.3612 18.2878 45.1027 21.4042L45.2674 22.1423H43.8669L34.722 0.327637H26.8952L17.1736 23.5365H22.4464L27.8015 10.9069C28.9549 8.20059 29.0373 5.49426 28.2134 2.4599L28.0487 1.72181H29.4492L38.5117 23.5365H46.3385L56.1425 0.327637H50.8697Z"/>
    <path filter="url(#logo-innershadow)" d="M6.62813 0.327637L16.4321 23.5365H10.5003L0.696289 0.327637H6.62813Z"/>
  </symbol>

  <symbol viewBox="0 0 125 25" id="logo-part-cess">
    <path filter="url(#logo-innershadow)" d="M118.12 10.841C115.648 10.1849 112.847 10.267 110.54 10.267C110.21 10.267 109.881 10.267 109.634 10.267C106.503 10.349 101.889 10.1849 101.56 7.88867C101.478 7.39661 101.642 6.57651 102.631 6.00244C104.526 4.93631 107.739 4.44425 110.787 4.44425C114.083 4.44425 117.872 5.18234 121.992 6.98656V2.55802C116.142 0.0157132 105.762 -0.722377 99.9946 2.31199C97.9349 3.37812 96.6167 5.34636 96.5343 7.56063C96.4519 9.61088 97.2758 11.6611 98.8412 12.6452C101.395 14.2854 105.432 14.6135 109.304 14.6955C109.716 14.6955 110.128 14.6955 110.375 14.6955C113.753 14.7775 118.696 14.6135 118.943 17.0738C119.026 17.6479 118.696 18.632 117.708 19.124C115.813 20.0261 112.847 20.6822 108.48 20.6822C105.432 20.6822 100.571 19.7801 97.0286 18.632V23.1425C100.654 24.2907 105.103 24.8647 109.963 24.7827C113.753 24.7007 117.131 24.6187 120.179 23.1425C122.98 21.8304 124.381 18.96 124.134 16.4177C123.969 15.0235 123.228 12.1532 118.12 10.841Z"/>
    <path filter="url(#logo-innershadow)" d="M87.9661 10.841C85.4945 10.1849 82.6934 10.267 80.3866 10.267C80.057 10.267 79.7274 10.267 79.4803 10.267C76.3496 10.349 71.7359 10.1849 71.4064 7.88867C71.324 7.39661 71.4888 6.57651 72.4774 6.00244C74.3723 4.93631 77.5854 4.44425 80.6337 4.44425C83.9292 4.44425 87.719 5.18234 91.8383 6.98656V2.55802C85.9888 0.0157132 75.6081 -0.722377 69.841 2.31199C67.7814 3.37812 66.4632 5.34636 66.3808 7.56063C66.2984 9.61088 67.1223 11.6611 68.6876 12.6452C71.2416 14.2854 75.2786 14.6135 79.1508 14.6955C79.5627 14.6955 79.9746 14.6955 80.2218 14.6955C83.5996 14.7775 88.5428 14.6135 88.79 17.0738C88.8724 17.6479 88.5428 18.632 87.5542 19.124C85.6593 20.0261 82.6934 20.6822 78.3269 20.6822C75.2786 20.6822 70.4178 19.7801 66.8751 18.632V23.1425C70.5001 24.2907 74.949 24.8647 79.8099 24.7827C83.5996 24.7007 86.9775 24.6187 90.0258 23.1425C92.8269 21.8304 94.2275 18.96 93.9803 16.4177C93.8156 15.0235 93.0741 12.1532 87.9661 10.841Z"/>
    <path filter="url(#logo-innershadow)" d="M42.2416 5.01832H62.1791V0.917823H36.6393V24.1266H62.1791V20.1082H42.2416V14.6955H59.2132V10.677H42.2416V5.01832Z"/>
    <path filter="url(#logo-innershadow)" d="M0.224376 13.0553C0.14199 8.62676 3.02551 4.52626 7.55677 2.394C11.7585 0.425763 19.4204 -0.476347 27.3296 1.32787C28.7301 1.65591 30.1307 2.06596 31.5313 2.55802V7.3146C26.8352 5.18234 22.5511 4.36224 18.267 4.36224C14.642 4.36224 12.3352 5.01832 9.8636 6.16646C6.89769 7.56063 5.66189 10.1849 5.82666 12.8913C5.99144 15.2696 7.14484 17.7299 10.1931 19.124C12.2528 20.1082 15.1364 20.7642 18.5142 20.8462C22.304 20.9283 27 20.1902 31.5313 18.55V23.1425C26.4233 24.4547 22.5511 24.8647 18.679 24.8647C14.5596 24.8647 10.7699 24.2907 7.96871 23.1425C3.35506 21.1743 0.306763 17.4018 0.224376 13.0553Z"/>
  </symbol>

  <symbol viewBox="0 0 11 11" id="star-plus">
    <path d="M0.000976562 5.35357C0.560034 5.26658 0.933777 5.19187 1.27239 5.07967C3.07223 4.48329 4.48427 3.07125 5.08065 1.27141C5.19285 0.932801 5.26756 0.559058 5.35455 0H5.64741C5.73439 0.559058 5.8091 0.932801 5.9213 1.27141C6.51769 3.07125 7.92972 4.48329 9.72957 5.07967C10.0682 5.19187 10.4419 5.26658 11.001 5.35357V5.64643C10.4419 5.73342 10.0682 5.80813 9.72957 5.92033C7.92972 6.51671 6.51769 7.92875 5.9213 9.72859C5.8091 10.0672 5.73439 10.4409 5.64741 11H5.35455C5.26756 10.4409 5.19285 10.0672 5.08065 9.72859C4.48427 7.92875 3.07223 6.51671 1.27239 5.92033C0.933777 5.80813 0.560034 5.73342 0.000976562 5.64643V5.35357Z"/>
  </symbol>

  <symbol viewBox="0 0 9 9" id="star-x">
    <path d="M0.715871 0.507324C1.17269 0.841129 1.4898 1.05258 1.80857 1.21267C3.50296 2.06365 5.49988 2.06365 7.19427 1.21267C7.51304 1.05258 7.83014 0.841129 8.28696 0.507324L8.49405 0.714406C8.16024 1.17123 7.94879 1.48833 7.7887 1.8071C6.93772 3.50149 6.93772 5.49841 7.7887 7.1928C7.94879 7.51157 8.16024 7.82868 8.49405 8.2855L8.28696 8.49258C7.83014 8.15878 7.51304 7.94733 7.19427 7.78723C5.49988 6.93626 3.50296 6.93626 1.80857 7.78723C1.4898 7.94733 1.17269 8.15878 0.715871 8.49258L0.508789 8.2855C0.842594 7.82868 1.05404 7.51157 1.21414 7.1928C2.06511 5.49841 2.06511 3.50149 1.21414 1.8071C1.05404 1.48833 0.842594 1.17123 0.508789 0.714406L0.715871 0.507324Z"/>
  </symbol>

  <symbol viewBox="0 0 31 31" id="icon-close">
    <path d="M15.5 14.4618L1.06673 0L0 1.06886L14.4333 15.5304L0.0608999 29.9311L1.12763 31L15.5 16.5992L29.8724 31L30.9391 29.9311L16.5667 15.5304L31 1.06886L29.9333 0L15.5 14.4618Z" />
  </symbol>

  <symbol viewBox="0 0 56 56" id="icon-telegram">
    <path fill-rule="evenodd" clip-rule="evenodd" d="M28 56C43.464 56 56 43.464 56 28C56 12.536 43.464 0 28 0C12.536 0 0 12.536 0 28C0 43.464 12.536 56 28 56ZM9.18849 25.5006C9.18849 25.5006 24.9764 18.6954 30.452 16.2993C32.551 15.3408 39.6692 12.2737 39.6692 12.2737C39.6692 12.2737 42.9545 10.9318 42.6808 14.1906C42.6148 15.1598 42.2157 17.8791 41.724 21.2288C41.5349 22.5168 41.3321 23.8981 41.1294 25.3089C40.0342 32.4974 38.8479 40.3569 38.8479 40.3569C38.8479 40.3569 38.6653 42.5614 37.1139 42.9448C35.5625 43.3282 33.0072 41.6029 32.5509 41.2195C32.4716 41.157 32.1036 40.9045 31.5517 40.5257C29.5637 39.1615 25.1908 36.1606 23.3337 34.5102C22.6949 33.9351 21.9648 32.785 23.425 31.4431C26.7103 28.2802 30.6345 24.3504 33.0072 21.8584C34.1024 20.7082 35.1975 18.0245 30.6345 21.2833C24.1551 25.9798 17.7669 30.3888 17.7669 30.3888C17.7669 30.3888 16.3067 31.3473 13.569 30.4846C10.8312 29.622 7.63708 28.4719 7.63708 28.4719C7.63708 28.4719 5.44685 27.0341 9.18849 25.5006Z" />
  </symbol>

  <symbol viewBox="0 0 56 56" id="icon-whatsapp">
    <path fill-rule="evenodd" clip-rule="evenodd" d="M47.6047 8.14255C42.3759 2.88715 35.4041 0 27.98 0C12.6928 0 0.239487 12.4533 0.226182 27.7406C0.226182 32.6367 1.50344 37.3999 3.92492 41.6175L0 56L14.7151 52.1416C18.7731 54.3502 23.3367 55.521 27.98 55.521H27.9933C43.2806 55.521 55.7339 43.0677 55.7472 27.7672C55.7339 20.3564 52.8468 13.3847 47.6047 8.14255ZM27.98 50.8244C23.8289 50.8244 19.771 49.7068 16.2319 47.6047L15.3937 47.0991L6.66572 49.3875L8.99406 40.8724L8.44856 39.9943C6.13352 36.3222 4.92278 32.0779 4.92278 27.7273C4.92278 15.0344 15.2739 4.6833 27.9933 4.6833C34.1535 4.6833 39.9411 7.09147 44.3051 11.4421C48.6557 15.8061 51.0506 21.5937 51.0506 27.7539C51.0373 40.4866 40.6861 50.8244 27.98 50.8244ZM40.6329 33.5548C39.9411 33.2088 36.535 31.5324 35.8964 31.2929C35.2578 31.0668 34.7921 30.947 34.3397 31.6389C33.8741 32.3307 32.5436 33.9007 32.1445 34.3531C31.7453 34.8187 31.3329 34.8719 30.641 34.526C29.9492 34.1801 27.7139 33.4483 25.0663 31.0801C23.004 29.244 21.6203 26.9689 21.2079 26.277C20.8087 25.5852 21.168 25.2126 21.5139 24.8667C21.8199 24.5607 22.2057 24.0551 22.5517 23.656C22.8976 23.2568 23.0173 22.9641 23.2435 22.4985C23.4697 22.0328 23.3633 21.6336 23.1903 21.2877C23.0173 20.9418 21.6336 17.5225 21.0482 16.1388C20.4894 14.7817 19.9173 14.9679 19.4916 14.9546C19.0924 14.928 18.6268 14.928 18.1611 14.928C17.6954 14.928 16.9503 15.101 16.3117 15.7928C15.6731 16.4847 13.8902 18.1611 13.8902 21.5804C13.8902 24.9998 16.3782 28.2861 16.7242 28.7517C17.0701 29.2174 21.607 36.2157 28.5655 39.2226C30.2153 39.9411 31.5058 40.3668 32.517 40.6861C34.1801 41.2183 35.6835 41.1385 36.881 40.9655C38.2115 40.766 40.9789 39.2891 41.5643 37.666C42.1364 36.0428 42.1364 34.6591 41.9634 34.3664C41.7904 34.0737 41.3248 33.9007 40.6329 33.5548Z"/>
  </symbol>

  <symbol viewBox="0 0 57 56" id="icon-instagram">
    <path d="M28.7738 5.04545C36.253 5.04545 37.131 5.07879 40.0871 5.21215C42.821 5.33439 44.2991 5.79004 45.2881 6.179C46.5995 6.69022 47.533 7.29034 48.511 8.26831C49.489 9.24628 50.1002 10.1798 50.6003 11.4912C50.9782 12.4803 51.4449 13.9583 51.5672 16.6922C51.7005 19.6483 51.7339 20.5263 51.7339 28.0056C51.7339 35.4848 51.7005 36.3628 51.5672 39.3189C51.4449 42.0528 50.9893 43.5309 50.6003 44.5199C50.0891 45.8313 49.489 46.7648 48.511 47.7428C47.533 48.7208 46.5995 49.332 45.2881 49.8321C44.2991 50.21 42.821 50.6767 40.0871 50.799C37.131 50.9323 36.253 50.9657 28.7738 50.9657C21.2945 50.9657 20.4165 50.9323 17.4604 50.799C14.7265 50.6767 13.2484 50.2211 12.2594 49.8321C10.948 49.3209 10.0145 48.7208 9.03649 47.7428C8.05852 46.7648 7.44729 45.8313 6.94719 44.5199C6.56934 43.5309 6.10258 42.0528 5.98033 39.3189C5.84697 36.3628 5.81363 35.4848 5.81363 28.0056C5.81363 20.5263 5.84697 19.6483 5.98033 16.6922C6.10258 13.9583 6.55822 12.4803 6.94719 11.4912C7.4584 10.1798 8.05852 9.24628 9.03649 8.26831C10.0145 7.29034 10.948 6.6791 12.2594 6.179C13.2484 5.80115 14.7265 5.33439 17.4604 5.21215C20.4165 5.06767 21.3056 5.04545 28.7738 5.04545ZM28.7738 0C21.1722 0 20.2165 0.0333399 17.227 0.1667C14.2486 0.30006 12.2149 0.777932 10.4368 1.46696C8.59196 2.17821 7.0361 3.14507 5.48023 4.70093C3.92437 6.2568 2.96862 7.82377 2.24626 9.65747C1.55723 11.4356 1.07936 13.4693 0.945997 16.4588C0.812637 19.4372 0.779297 20.3929 0.779297 27.9944C0.779297 35.596 0.812637 36.5517 0.945997 39.5412C1.07936 42.5195 1.55723 44.5533 2.24626 46.3425C2.95751 48.1873 3.92437 49.7432 5.48023 51.2991C7.0361 52.8549 8.60308 53.8107 10.4368 54.533C12.2149 55.2221 14.2486 55.6999 17.2381 55.8333C20.2276 55.9667 21.1722 56 28.7849 56C36.3975 56 37.3421 55.9667 40.3316 55.8333C43.31 55.6999 45.3437 55.2221 47.133 54.533C48.9778 53.8218 50.5336 52.8549 52.0895 51.2991C53.6454 49.7432 54.6011 48.1762 55.3235 46.3425C56.0125 44.5644 56.4904 42.5307 56.6237 39.5412C56.7571 36.5517 56.7904 35.6071 56.7904 27.9944C56.7904 20.3818 56.7571 19.4372 56.6237 16.4477C56.4904 13.4693 56.0125 11.4356 55.3235 9.64636C54.6122 7.80155 53.6454 6.24568 52.0895 4.68982C50.5336 3.13396 48.9667 2.17821 47.133 1.45584C45.3548 0.766819 43.3211 0.288946 40.3316 0.155586C37.331 0.03334 36.3753 0 28.7738 0Z"/>
    <path d="M28.7737 13.6249C20.8388 13.6249 14.3931 20.0595 14.3931 28.0056C14.3931 35.9516 20.8277 42.3862 28.7737 42.3862C36.7198 42.3862 43.1544 35.9516 43.1544 28.0056C43.1544 20.0595 36.7198 13.6249 28.7737 13.6249ZM28.7737 37.3296C23.6172 37.3296 19.4386 33.151 19.4386 27.9945C19.4386 22.8379 23.6172 18.6593 28.7737 18.6593C33.9303 18.6593 38.1089 22.8379 38.1089 27.9945C38.1089 33.151 33.9303 37.3296 28.7737 37.3296Z"/>
    <path d="M43.7212 16.4032C45.5748 16.4032 47.0774 14.9006 47.0774 13.047C47.0774 11.1934 45.5748 9.6908 43.7212 9.6908C41.8676 9.6908 40.365 11.1934 40.365 13.047C40.365 14.9006 41.8676 16.4032 43.7212 16.4032Z"/>
  </symbol>
</svg>