<svg xmlns="http://www.w3.org/2000/svg">

   <symbol viewBox="0 0 11 11" id="star-plus">
    <path d="M0.000976562 5.35357C0.560034 5.26658 0.933777 5.19187 1.27239 5.07967C3.07223 4.48329 4.48427 3.07125 5.08065 1.27141C5.19285 0.932801 5.26756 0.559058 5.35455 0H5.64741C5.73439 0.559058 5.8091 0.932801 5.9213 1.27141C6.51769 3.07125 7.92972 4.48329 9.72957 5.07967C10.0682 5.19187 10.4419 5.26658 11.001 5.35357V5.64643C10.4419 5.73342 10.0682 5.80813 9.72957 5.92033C7.92972 6.51671 6.51769 7.92875 5.9213 9.72859C5.8091 10.0672 5.73439 10.4409 5.64741 11H5.35455C5.26756 10.4409 5.19285 10.0672 5.08065 9.72859C4.48427 7.92875 3.07223 6.51671 1.27239 5.92033C0.933777 5.80813 0.560034 5.73342 0.000976562 5.64643V5.35357Z"/>
  </symbol>

  <symbol viewBox="0 0 9 9" id="star-x">
    <path d="M0.715871 0.507324C1.17269 0.841129 1.4898 1.05258 1.80857 1.21267C3.50296 2.06365 5.49988 2.06365 7.19427 1.21267C7.51304 1.05258 7.83014 0.841129 8.28696 0.507324L8.49405 0.714406C8.16024 1.17123 7.94879 1.48833 7.7887 1.8071C6.93772 3.50149 6.93772 5.49841 7.7887 7.1928C7.94879 7.51157 8.16024 7.82868 8.49405 8.2855L8.28696 8.49258C7.83014 8.15878 7.51304 7.94733 7.19427 7.78723C5.49988 6.93626 3.50296 6.93626 1.80857 7.78723C1.4898 7.94733 1.17269 8.15878 0.715871 8.49258L0.508789 8.2855C0.842594 7.82868 1.05404 7.51157 1.21414 7.1928C2.06511 5.49841 2.06511 3.50149 1.21414 1.8071C1.05404 1.48833 0.842594 1.17123 0.508789 0.714406L0.715871 0.507324Z"/>
  </symbol>

  <symbol viewBox="0 0 32 28" id="icon-consult">
    <path filter="url(#logo-innershadow)" d="M25.9578 1.78831C23.6361 0.66047 20.08 0 16.0028 0C11.9257 0 8.36948 0.66047 6.04777 1.78831C2.22544 3.64658 -0.0906033 7.22319 0.00283135 11.1272C0.0934346 14.9025 2.41231 18.1573 6.21765 19.8785L5.79861 20.8944H2.19147L0 28L13.1488 21.4485C14.0662 21.4849 16.4105 21.524 16.62 21.524C20.0856 21.524 23.1718 21.0091 25.5614 19.982C29.4999 18.2889 31.9065 14.9781 31.9971 11.1272C32.0934 7.22319 29.7773 3.64658 25.9578 1.78831Z"/>
  </symbol>

  <symbol viewBox="0 0 31 31" id="icon-close">
    <path d="M15.5 14.4618L1.06673 0L0 1.06886L14.4333 15.5304L0.0608999 29.9311L1.12763 31L15.5 16.5992L29.8724 31L30.9391 29.9311L16.5667 15.5304L31 1.06886L29.9333 0L15.5 14.4618Z" />
  </symbol>

  <symbol viewBox="0 0 56 56" id="icon-telegram">
    <path fill-rule="evenodd" clip-rule="evenodd" d="M28 56C43.464 56 56 43.464 56 28C56 12.536 43.464 0 28 0C12.536 0 0 12.536 0 28C0 43.464 12.536 56 28 56ZM9.18849 25.5006C9.18849 25.5006 24.9764 18.6954 30.452 16.2993C32.551 15.3408 39.6692 12.2737 39.6692 12.2737C39.6692 12.2737 42.9545 10.9318 42.6808 14.1906C42.6148 15.1598 42.2157 17.8791 41.724 21.2288C41.5349 22.5168 41.3321 23.8981 41.1294 25.3089C40.0342 32.4974 38.8479 40.3569 38.8479 40.3569C38.8479 40.3569 38.6653 42.5614 37.1139 42.9448C35.5625 43.3282 33.0072 41.6029 32.5509 41.2195C32.4716 41.157 32.1036 40.9045 31.5517 40.5257C29.5637 39.1615 25.1908 36.1606 23.3337 34.5102C22.6949 33.9351 21.9648 32.785 23.425 31.4431C26.7103 28.2802 30.6345 24.3504 33.0072 21.8584C34.1024 20.7082 35.1975 18.0245 30.6345 21.2833C24.1551 25.9798 17.7669 30.3888 17.7669 30.3888C17.7669 30.3888 16.3067 31.3473 13.569 30.4846C10.8312 29.622 7.63708 28.4719 7.63708 28.4719C7.63708 28.4719 5.44685 27.0341 9.18849 25.5006Z" />
  </symbol>

  <symbol viewBox="0 0 56 56" id="icon-whatsapp">
    <path fill-rule="evenodd" clip-rule="evenodd" d="M47.6047 8.14255C42.3759 2.88715 35.4041 0 27.98 0C12.6928 0 0.239487 12.4533 0.226182 27.7406C0.226182 32.6367 1.50344 37.3999 3.92492 41.6175L0 56L14.7151 52.1416C18.7731 54.3502 23.3367 55.521 27.98 55.521H27.9933C43.2806 55.521 55.7339 43.0677 55.7472 27.7672C55.7339 20.3564 52.8468 13.3847 47.6047 8.14255ZM27.98 50.8244C23.8289 50.8244 19.771 49.7068 16.2319 47.6047L15.3937 47.0991L6.66572 49.3875L8.99406 40.8724L8.44856 39.9943C6.13352 36.3222 4.92278 32.0779 4.92278 27.7273C4.92278 15.0344 15.2739 4.6833 27.9933 4.6833C34.1535 4.6833 39.9411 7.09147 44.3051 11.4421C48.6557 15.8061 51.0506 21.5937 51.0506 27.7539C51.0373 40.4866 40.6861 50.8244 27.98 50.8244ZM40.6329 33.5548C39.9411 33.2088 36.535 31.5324 35.8964 31.2929C35.2578 31.0668 34.7921 30.947 34.3397 31.6389C33.8741 32.3307 32.5436 33.9007 32.1445 34.3531C31.7453 34.8187 31.3329 34.8719 30.641 34.526C29.9492 34.1801 27.7139 33.4483 25.0663 31.0801C23.004 29.244 21.6203 26.9689 21.2079 26.277C20.8087 25.5852 21.168 25.2126 21.5139 24.8667C21.8199 24.5607 22.2057 24.0551 22.5517 23.656C22.8976 23.2568 23.0173 22.9641 23.2435 22.4985C23.4697 22.0328 23.3633 21.6336 23.1903 21.2877C23.0173 20.9418 21.6336 17.5225 21.0482 16.1388C20.4894 14.7817 19.9173 14.9679 19.4916 14.9546C19.0924 14.928 18.6268 14.928 18.1611 14.928C17.6954 14.928 16.9503 15.101 16.3117 15.7928C15.6731 16.4847 13.8902 18.1611 13.8902 21.5804C13.8902 24.9998 16.3782 28.2861 16.7242 28.7517C17.0701 29.2174 21.607 36.2157 28.5655 39.2226C30.2153 39.9411 31.5058 40.3668 32.517 40.6861C34.1801 41.2183 35.6835 41.1385 36.881 40.9655C38.2115 40.766 40.9789 39.2891 41.5643 37.666C42.1364 36.0428 42.1364 34.6591 41.9634 34.3664C41.7904 34.0737 41.3248 33.9007 40.6329 33.5548Z"/>
  </symbol>

  <symbol viewBox="0 0 57 56" id="icon-instagram">
    <path d="M28.7738 5.04545C36.253 5.04545 37.131 5.07879 40.0871 5.21215C42.821 5.33439 44.2991 5.79004 45.2881 6.179C46.5995 6.69022 47.533 7.29034 48.511 8.26831C49.489 9.24628 50.1002 10.1798 50.6003 11.4912C50.9782 12.4803 51.4449 13.9583 51.5672 16.6922C51.7005 19.6483 51.7339 20.5263 51.7339 28.0056C51.7339 35.4848 51.7005 36.3628 51.5672 39.3189C51.4449 42.0528 50.9893 43.5309 50.6003 44.5199C50.0891 45.8313 49.489 46.7648 48.511 47.7428C47.533 48.7208 46.5995 49.332 45.2881 49.8321C44.2991 50.21 42.821 50.6767 40.0871 50.799C37.131 50.9323 36.253 50.9657 28.7738 50.9657C21.2945 50.9657 20.4165 50.9323 17.4604 50.799C14.7265 50.6767 13.2484 50.2211 12.2594 49.8321C10.948 49.3209 10.0145 48.7208 9.03649 47.7428C8.05852 46.7648 7.44729 45.8313 6.94719 44.5199C6.56934 43.5309 6.10258 42.0528 5.98033 39.3189C5.84697 36.3628 5.81363 35.4848 5.81363 28.0056C5.81363 20.5263 5.84697 19.6483 5.98033 16.6922C6.10258 13.9583 6.55822 12.4803 6.94719 11.4912C7.4584 10.1798 8.05852 9.24628 9.03649 8.26831C10.0145 7.29034 10.948 6.6791 12.2594 6.179C13.2484 5.80115 14.7265 5.33439 17.4604 5.21215C20.4165 5.06767 21.3056 5.04545 28.7738 5.04545ZM28.7738 0C21.1722 0 20.2165 0.0333399 17.227 0.1667C14.2486 0.30006 12.2149 0.777932 10.4368 1.46696C8.59196 2.17821 7.0361 3.14507 5.48023 4.70093C3.92437 6.2568 2.96862 7.82377 2.24626 9.65747C1.55723 11.4356 1.07936 13.4693 0.945997 16.4588C0.812637 19.4372 0.779297 20.3929 0.779297 27.9944C0.779297 35.596 0.812637 36.5517 0.945997 39.5412C1.07936 42.5195 1.55723 44.5533 2.24626 46.3425C2.95751 48.1873 3.92437 49.7432 5.48023 51.2991C7.0361 52.8549 8.60308 53.8107 10.4368 54.533C12.2149 55.2221 14.2486 55.6999 17.2381 55.8333C20.2276 55.9667 21.1722 56 28.7849 56C36.3975 56 37.3421 55.9667 40.3316 55.8333C43.31 55.6999 45.3437 55.2221 47.133 54.533C48.9778 53.8218 50.5336 52.8549 52.0895 51.2991C53.6454 49.7432 54.6011 48.1762 55.3235 46.3425C56.0125 44.5644 56.4904 42.5307 56.6237 39.5412C56.7571 36.5517 56.7904 35.6071 56.7904 27.9944C56.7904 20.3818 56.7571 19.4372 56.6237 16.4477C56.4904 13.4693 56.0125 11.4356 55.3235 9.64636C54.6122 7.80155 53.6454 6.24568 52.0895 4.68982C50.5336 3.13396 48.9667 2.17821 47.133 1.45584C45.3548 0.766819 43.3211 0.288946 40.3316 0.155586C37.331 0.03334 36.3753 0 28.7738 0Z"/>
    <path d="M28.7737 13.6249C20.8388 13.6249 14.3931 20.0595 14.3931 28.0056C14.3931 35.9516 20.8277 42.3862 28.7737 42.3862C36.7198 42.3862 43.1544 35.9516 43.1544 28.0056C43.1544 20.0595 36.7198 13.6249 28.7737 13.6249ZM28.7737 37.3296C23.6172 37.3296 19.4386 33.151 19.4386 27.9945C19.4386 22.8379 23.6172 18.6593 28.7737 18.6593C33.9303 18.6593 38.1089 22.8379 38.1089 27.9945C38.1089 33.151 33.9303 37.3296 28.7737 37.3296Z"/>
    <path d="M43.7212 16.4032C45.5748 16.4032 47.0774 14.9006 47.0774 13.047C47.0774 11.1934 45.5748 9.6908 43.7212 9.6908C41.8676 9.6908 40.365 11.1934 40.365 13.047C40.365 14.9006 41.8676 16.4032 43.7212 16.4032Z"/>
  </symbol>

  <symbol viewBox="0 0 38 38" id="icon-instagram-thin">
    <path fill-rule="evenodd" clip-rule="evenodd" d="M18.9923 27.1645C23.5088 27.1645 27.1701 23.5032 27.1701 18.9867C27.1701 14.4702 23.5088 10.8089 18.9923 10.8089C14.4759 10.8089 10.8146 14.4702 10.8146 18.9867C10.8146 23.5032 14.4759 27.1645 18.9923 27.1645ZM18.9923 29.0145C24.5305 29.0145 29.0201 24.5249 29.0201 18.9867C29.0201 13.4485 24.5305 8.95893 18.9923 8.95893C13.4542 8.95893 8.96456 13.4485 8.96456 18.9867C8.96456 24.5249 13.4542 29.0145 18.9923 29.0145Z" />
    <path d="M32.1947 7.90316C32.1947 9.06909 31.2496 10.0143 30.0836 10.0143C28.9177 10.0143 27.9725 9.06909 27.9725 7.90316C27.9725 6.73722 28.9177 5.79204 30.0836 5.79204C31.2496 5.79204 32.1947 6.73722 32.1947 7.90316Z" />
    <path fill-rule="evenodd" clip-rule="evenodd" d="M20.4 1.85H17.6C14.4892 1.85 12.2673 1.85144 10.5259 1.99372C8.806 2.13424 7.71824 2.40286 6.84599 2.84729C5.1243 3.72453 3.72453 5.1243 2.84729 6.84599C2.40286 7.71824 2.13424 8.806 1.99372 10.5259C1.85144 12.2673 1.85 14.4892 1.85 17.6V20.4C1.85 23.5108 1.85144 25.7327 1.99372 27.4741C2.13424 29.194 2.40286 30.2818 2.84729 31.154C3.72453 32.8757 5.1243 34.2755 6.84599 35.1527C7.71824 35.5971 8.806 35.8658 10.5259 36.0063C12.2673 36.1486 14.4892 36.15 17.6 36.15H20.4C23.5108 36.15 25.7327 36.1486 27.4741 36.0063C29.194 35.8658 30.2818 35.5971 31.154 35.1527C32.8757 34.2755 34.2755 32.8757 35.1527 31.154C35.5971 30.2818 35.8658 29.194 36.0063 27.4741C36.1486 25.7327 36.15 23.5108 36.15 20.4V17.6C36.15 14.4892 36.1486 12.2673 36.0063 10.5259C35.8658 8.806 35.5971 7.71824 35.1527 6.84599C34.2755 5.1243 32.8757 3.72453 31.154 2.84729C30.2818 2.40286 29.194 2.13424 27.4741 1.99372C25.7327 1.85144 23.5108 1.85 20.4 1.85ZM1.19893 6.0061C0 8.35913 0 11.4394 0 17.6V20.4C0 26.5606 0 29.6409 1.19893 31.9939C2.25354 34.0637 3.93632 35.7465 6.0061 36.8011C8.35913 38 11.4394 38 17.6 38H20.4C26.5606 38 29.6409 38 31.9939 36.8011C34.0637 35.7465 35.7465 34.0637 36.8011 31.9939C38 29.6409 38 26.5606 38 20.4V17.6C38 11.4394 38 8.35913 36.8011 6.0061C35.7465 3.93632 34.0637 2.25354 31.9939 1.19893C29.6409 0 26.5606 0 20.4 0H17.6C11.4394 0 8.35913 0 6.0061 1.19893C3.93632 2.25354 2.25354 3.93632 1.19893 6.0061Z" />
  </symbol>

  <symbol viewBox="0 0 90 31" id="kontora-logo">
    <path d="M15.2507 7.21429H9.30136L11.3181 8.32348L11.3181 19.2138L9.30136 20.323H15.2507L13.234 19.2138V13.688L19.4858 20.323L22.7125 20.323L21.0992 19.2138L14.9482 12.7603L19.2035 8.50499L22.289 7.21429L17.1061 7.21429L18.4371 8.26298L13.234 13.2644V8.32348L15.2507 7.21429Z"/>
    <path d="M27.1229 11.6511C28.7967 11.6511 29.9463 13.6476 29.9463 16.592C29.9463 18.5684 29.1597 19.9196 27.6674 19.9196C26.0137 19.9196 24.8238 17.9231 24.8238 14.9787C24.8238 12.9619 25.6506 11.6511 27.1229 11.6511ZM23.0087 15.7853C23.0087 18.4071 24.5818 20.6255 27.385 20.6255C29.9866 20.6255 31.7613 18.4071 31.7613 15.7853C31.7613 13.1636 30.1883 10.9452 27.385 10.9452C24.7835 10.9452 23.0087 13.1636 23.0087 15.7853Z"/>
    <path d="M32.4653 20.323H37.3054L35.692 19.4154V15.987L39.6246 15.987L39.6246 19.4154L38.0112 20.323L42.8514 20.323L41.238 19.4154V12.1552L42.8514 11.2477L38.0112 11.2477L39.6246 12.1552V15.2812L35.692 15.2812L35.692 12.1552L37.3054 11.2477H32.4653L34.0786 12.1552V19.4154L32.4653 20.323Z"/>
    <path d="M44.9626 20.323L50.2061 20.323L48.391 19.4154L48.391 11.8527H50.0044L51.6178 14.0711V11.2477H43.5509V14.0711L45.1643 11.8527H46.7777L46.7777 19.4154L44.9626 20.323Z"/>
    <path d="M56.7347 11.6511C58.4086 11.6511 59.5581 13.6476 59.5581 16.592C59.5581 18.5684 58.7716 19.9196 57.2793 19.9196C55.6255 19.9196 54.4357 17.9231 54.4357 14.9787C54.4357 12.9619 55.2625 11.6511 56.7347 11.6511ZM52.6206 15.7853C52.6206 18.4071 54.1937 20.6255 56.9969 20.6255C59.5985 20.6255 61.3732 18.4071 61.3732 15.7853C61.3732 13.1636 59.8002 10.9452 56.9969 10.9452C54.3953 10.9452 52.6206 13.1636 52.6206 15.7853Z"/>
    <path d="M64.6989 13.4863C65.2837 12.6393 66.0098 12.2561 66.8164 12.2561C68.329 12.2561 69.539 13.4661 69.539 16.0879C69.539 18.6087 68.2281 19.9196 66.6753 19.9196C65.7072 19.9196 64.6989 19.3146 64.6989 18.2054V13.4863ZM61.4721 24.5581H66.3123L64.6989 23.6505V19.7179C64.6989 19.7179 65.4047 20.6255 67.0181 20.6255C69.418 20.6255 71.2532 18.6087 71.2532 15.5837C71.2532 12.6594 69.7407 10.9452 67.6231 10.9452C66.3123 10.9452 65.4047 11.8527 64.6989 12.9418V10.9452L61.4721 12.1149L63.0855 12.4981V23.6505L61.4721 24.5581Z"/>
    <path d="M74.6971 15.5433C73.3459 16.108 72.4585 16.9954 72.4585 18.3062C72.4585 19.6978 73.3661 20.6255 74.5963 20.6255C75.2013 20.6255 75.6046 20.4843 76.0483 20.1616L77.6012 19.1331C77.6012 20.202 78.0045 20.6255 78.7104 20.6255C79.4162 20.6255 81.0296 18.6088 81.0296 18.6088L79.2145 19.3146V13.8695C79.2145 12.1553 78.4885 10.9452 76.2903 10.9452C75.0803 10.9452 72.8014 12.0544 72.8014 13.3048C72.8014 13.8896 73.1442 14.2526 73.6282 14.2526C74.1122 14.2526 74.4551 13.93 74.4551 13.3048C74.4551 12.0746 74.9794 11.5502 76.0886 11.5502C77.1978 11.5502 77.6012 12.0746 77.6012 13.8695L77.6012 14.3535L74.6971 15.5433ZM77.6012 18.4877C76.7743 19.1533 76.008 19.4759 75.5038 19.4759C74.5761 19.4759 74.1122 18.8104 74.1122 18.0037C74.1122 16.9954 74.5559 16.2089 76.0483 15.5837L77.6012 14.9383V18.4877Z"/>
    <path d="M81.8691 10.2563C81.8691 12.1126 83.374 13.6175 85.2303 13.6175C87.0866 13.6175 88.5915 12.1126 88.5915 10.2563C88.5915 8.39998 87.0866 6.89508 85.2303 6.89508C83.374 6.89508 81.8691 8.39998 81.8691 10.2563ZM82.1517 10.2563C82.1517 8.5604 83.5344 7.17772 85.2303 7.17772C86.9262 7.17772 88.3088 8.5604 88.3088 10.2563C88.3088 11.9522 86.9262 13.3348 85.2303 13.3348C83.5344 13.3348 82.1517 11.9522 82.1517 10.2563ZM83.3969 8.53748H85.1921C85.8032 8.53748 86.5671 8.72846 86.5671 9.49236C86.5671 10.0424 86.1775 10.2945 85.7345 10.3938L86.6817 11.6313L87.2165 11.9751L86.1699 11.9751L85.0699 10.4473L84.6192 10.4473V11.6313L85.2303 11.9751H83.3969L84.008 11.6313L84.008 8.88124L83.3969 8.53748ZM85.1539 10.1799C85.6886 10.1799 85.9178 9.87432 85.9178 9.49237C85.9178 9.11041 85.6122 8.80485 85.1539 8.80485H84.7567L84.6192 8.88124V10.1799L85.1539 10.1799Z"/>
    <path fill-rule="evenodd" clip-rule="evenodd" d="M4.33457 8.70082C2.19989 10.5797 1.04958 12.7743 1.04958 15.2981C1.04958 17.8219 2.19989 20.0165 4.33457 21.8954C6.47251 23.7772 9.5938 25.3377 13.5171 26.5811C21.3631 29.0675 32.3743 30.2723 45.014 30.2723C57.6537 30.2723 68.665 29.0675 76.5109 26.5811C80.4343 25.3378 83.5556 23.7772 85.6935 21.8954C87.8282 20.0165 88.9785 17.822 88.9785 15.2981C88.9785 14.5202 88.8693 13.7748 88.6566 13.0613L88.9465 12.9749C89.1677 13.7169 89.281 14.4914 89.281 15.2981C89.281 17.9269 88.0784 20.1993 85.8934 22.1225C83.7116 24.0429 80.5463 25.6196 76.6023 26.8694C68.7136 29.3694 57.6669 30.5748 45.014 30.5748C32.3611 30.5748 21.3145 29.3694 13.4258 26.8694C9.48175 25.6196 6.31648 24.0429 4.1347 22.1225C1.94965 20.1993 0.74707 17.9269 0.74707 15.2981C0.74707 12.6694 1.94965 10.397 4.1347 8.47374C6.31648 6.55339 9.48175 4.97667 13.4258 3.7268C21.3145 1.22683 32.3611 0.0214836 45.014 0.0214844C53.3237 0.0214848 60.9387 0.54137 67.421 1.6057C73.901 2.66968 79.2589 4.27928 83.0474 6.46471L82.8962 6.72674C79.1531 4.56744 73.836 2.96555 67.372 1.90422C60.9102 0.843237 53.3122 0.323992 45.014 0.323991C32.3743 0.32399 21.3631 1.52875 13.5171 4.01517C9.5938 5.2585 6.47251 6.81905 4.33457 8.70082Z"/>
  </symbol>

</svg>
